<?xml version="1.0" standalone="no"?>
<!DOCTYPE svg PUBLIC "-//W3C//DTD SVG 20010904//EN"
 "http://www.w3.org/TR/2001/REC-SVG-20010904/DTD/svg10.dtd">
<svg version="1.0" xmlns="http://www.w3.org/2000/svg"
 width="640.000000pt" height="640.000000pt" viewBox="0 0 640.000000 640.000000"
 preserveAspectRatio="xMidYMid meet">
<metadata>
Created by potrace 1.14, written by Peter Selinger 2001-2017
</metadata>
<g transform="translate(0.000000,640.000000) scale(0.100000,-0.100000)"
fill="#000000" stroke="none">
<path d="M4030 4863 c-71 -8 -207 -46 -265 -75 -181 -91 -328 -248 -402 -430
-54 -134 -53 -94 -53 -1453 l0 -1260 847 0 c668 0 860 3 903 13 313 75 535
287 621 592 l24 85 0 915 c0 862 -1 919 -19 990 -68 273 -271 496 -531 585
-115 39 -202 45 -655 43 -239 0 -451 -3 -470 -5z m655 -868 c80 -38 153 -113
196 -200 29 -58 35 -83 37 -151 8 -180 -77 -324 -237 -401 -75 -36 -221 -44
-303 -18 -373 123 -385 641 -18 784 46 18 72 21 160 18 92 -3 113 -7 165 -32z"/>
<path d="M1344 4805 c-76 -16 -143 -39 -197 -66 -169 -86 -322 -252 -386 -418
-62 -160 -61 -150 -61 -1051 l0 -820 808 -2 807 -3 3 -423 2 -422 36 0 c42 0
175 33 246 61 155 61 323 213 401 364 102 196 98 154 94 1221 -3 883 -4 911
-24 979 -71 244 -248 444 -474 536 -140 57 -164 59 -702 58 -368 0 -507 -4
-553 -14z m712 -802 c175 -69 287 -265 255 -444 -24 -136 -110 -252 -230 -312
-62 -30 -71 -32 -181 -32 -104 0 -120 3 -173 27 -31 15 -82 51 -113 80 -162
153 -174 403 -26 569 87 98 176 137 314 138 73 1 99 -4 154 -26z"/>
</g>
</svg>
